<svg width="16" height="16" viewBox="0 0 16 16" fill="none" xmlns="http://www.w3.org/2000/svg">
<path fill-rule="evenodd" clip-rule="evenodd" d="M8 16C12.4183 16 16 12.4183 16 8C16 3.58172 12.4183 0 8 0C3.58172 0 0 3.58172 0 8C0 12.4183 3.58172 16 8 16ZM8 2.66211C7.58579 2.66211 7.25 2.9979 7.25 3.41211V8.21013C7.25 8.49213 7.40564 8.73778 7.6357 8.86587C7.67144 8.89691 7.71066 8.925 7.75319 8.94955L10.9816 10.8135C11.3404 11.0206 11.7991 10.8977 12.0062 10.539C12.2133 10.1803 12.0904 9.72157 11.7316 9.51447L8.75 7.79301V3.41211C8.75 2.9979 8.41421 2.66211 8 2.66211Z" fill="white"/>
</svg>
