<svg width="134" height="77" viewBox="0 0 134 77" fill="none" xmlns="http://www.w3.org/2000/svg">
<mask id="mask0_6232_5589" style="mask-type:alpha" maskUnits="userSpaceOnUse" x="14" y="41" width="38" height="17">
<path d="M26.5968 41.4412C26.5968 41.4412 13.7591 46.6076 14.0034 54.1528V58.0004H51.9986V54.1528C51.9986 54.1528 52.4262 48.4431 38.539 41.1123L26.5968 41.4412Z" fill="white"/>
</mask>
<g mask="url(#mask0_6232_5589)">
<path fill-rule="evenodd" clip-rule="evenodd" d="M27.3143 41.4214C26.8398 41.4345 26.3775 41.5285 25.9446 41.7231C23.3345 42.8966 13.7925 47.638 14.0034 54.1528V54.1528C14.0034 56.2778 15.7261 58.0004 17.851 58.0004H48.2897C50.338 58.0004 51.9986 56.3399 51.9986 54.2915V54.2915C51.9986 54.1991 52.0021 54.108 51.9981 54.0156C51.9598 53.1293 51.2091 48.0451 39.4701 41.613C38.8666 41.2823 38.1776 41.1223 37.4898 41.1412L27.3143 41.4214Z" fill="#3D414E"/>
</g>
<path fill-rule="evenodd" clip-rule="evenodd" d="M28.6409 37.1091C28.6409 37.1091 28.8874 39.7545 26.0903 41.6066C26.0903 41.6066 32.6707 46.7219 38.1819 41.2544C38.1819 41.2544 36.5368 40.02 36.5368 36.668L28.6409 37.1091Z" fill="#DEC4AC"/>
<path fill-rule="evenodd" clip-rule="evenodd" d="M25.9222 32.9412C25.9222 32.9412 27.072 38.4332 32.4862 39.3354C32.4862 39.3354 37.9003 39.172 39.7058 31.7935L40.7727 29.9903V25.6449L38.8036 23.0217L33.8803 22.4473L26.7425 24.7427L24.3633 29.2514L25.9222 32.9412Z" fill="#EAD7C6"/>
<path fill-rule="evenodd" clip-rule="evenodd" d="M24.0866 21.8026C21.6681 21.2804 26.9143 15.3963 36.3844 19.3694C45.8567 23.3426 39.6233 31.8688 39.6233 31.8688C41.972 24.6681 35.5761 23.6748 35.5761 23.6748C33.1477 26.5713 30.3943 26.2402 30.3943 26.2402C23.5139 27.1502 26.023 33.111 26.023 33.111C20.4518 27.1557 26.5052 22.3237 24.0866 21.8026Z" fill="#4B3433"/>
<path fill-rule="evenodd" clip-rule="evenodd" d="M69 24.6073C69 25.8002 69.9671 26.7673 71.16 26.7673H94.9711C96.1641 26.7673 97.1311 25.8002 97.1311 24.6073V24.6073C97.1311 23.4143 96.1641 22.4473 94.9711 22.4473H71.16C69.9671 22.4473 69 23.4143 69 24.6073V24.6073Z" fill="#39FFD0"/>
<path fill-rule="evenodd" clip-rule="evenodd" d="M69 44.9473C69 46.1414 69.968 47.1095 71.1622 47.1095H118.772C119.966 47.1095 120.934 46.1414 120.934 44.9473V44.9473C120.934 43.7532 119.966 42.7852 118.772 42.7852H71.1622C69.968 42.7852 69 43.7532 69 44.9473V44.9473Z" fill="#39FFD0"/>
<path fill-rule="evenodd" clip-rule="evenodd" d="M69 55.7579C69 56.952 69.968 57.92 71.1622 57.92H118.772C119.966 57.92 120.934 56.952 120.934 55.7579V55.7579C120.934 54.5637 119.966 53.5957 118.772 53.5957H71.1622C69.968 53.5957 69 54.5637 69 55.7579V55.7579Z" fill="#39FFD0"/>
<path d="M0 1.5C0 0.671573 0.671573 0 1.5 0H10.5C11.3284 0 12 0.671573 12 1.5C12 2.32843 11.3284 3 10.5 3H1.5C0.671573 3 0 2.32843 0 1.5Z" fill="white"/>
<path d="M1.5 0C2.32843 3.62117e-08 3 0.671573 3 1.5L3 10.5C3 11.3284 2.32843 12 1.5 12C0.671573 12 -1.83442e-08 11.3284 1.78675e-08 10.5L0 1.5C0 0.671573 0.671573 0 1.5 0Z" fill="white"/>
<path d="M0 75.5C0 76.3284 0.671573 77 1.5 77H10.5C11.3284 77 12 76.3284 12 75.5C12 74.6716 11.3284 74 10.5 74H1.5C0.671573 74 0 74.6716 0 75.5Z" fill="white"/>
<path d="M1.5 77C2.32843 77 3 76.3284 3 75.5L3 66.5C3 65.6716 2.32843 65 1.5 65C0.671573 65 -1.83442e-08 65.6716 1.78675e-08 66.5L0 75.5C0 76.3284 0.671573 77 1.5 77Z" fill="white"/>
<path d="M134 1.5C134 0.671573 133.328 0 132.5 0H123.5C122.672 0 122 0.671573 122 1.5C122 2.32843 122.672 3 123.5 3H132.5C133.328 3 134 2.32843 134 1.5Z" fill="white"/>
<path d="M132.5 0C131.672 3.62117e-08 131 0.671573 131 1.5L131 10.5C131 11.3284 131.672 12 132.5 12C133.328 12 134 11.3284 134 10.5L134 1.5C134 0.671573 133.328 0 132.5 0Z" fill="white"/>
<path d="M134 75.5C134 76.3284 133.328 77 132.5 77H123.5C122.672 77 122 76.3284 122 75.5C122 74.6716 122.672 74 123.5 74H132.5C133.328 74 134 74.6716 134 75.5Z" fill="white"/>
<path d="M132.5 77C131.672 77 131 76.3284 131 75.5V66.5C131 65.6716 131.672 65 132.5 65C133.328 65 134 65.6716 134 66.5V75.5C134 76.3284 133.328 77 132.5 77Z" fill="white"/>
</svg>
