<svg width="134" height="77" viewBox="0 0 134 77" fill="none" xmlns="http://www.w3.org/2000/svg">
<path fill-rule="evenodd" clip-rule="evenodd" d="M32 19.5C32 20.8807 33.1193 22 34.5 22H98.5C99.8807 22 101 20.8807 101 19.5C101 18.1193 99.8807 17 98.5 17H34.5C33.1193 17 32 18.1193 32 19.5Z" fill="#39FFD0"/>
<path fill-rule="evenodd" clip-rule="evenodd" d="M32 39.5C32 40.8807 33.1193 42 34.5 42H98.5C99.8807 42 101 40.8807 101 39.5C101 38.1193 99.8807 37 98.5 37H34.5C33.1193 37 32 38.1193 32 39.5Z" fill="#39FFD0"/>
<path fill-rule="evenodd" clip-rule="evenodd" d="M22 59C22 60.1046 22.8954 61 24 61H110C111.105 61 112 60.1046 112 59C112 57.8954 111.105 57 110 57H24C22.8954 57 22 57.8954 22 59Z" fill="#39FFD0"/>
<path d="M0 1.5C0 0.671573 0.671573 0 1.5 0H10.5C11.3284 0 12 0.671573 12 1.5C12 2.32843 11.3284 3 10.5 3H1.5C0.671573 3 0 2.32843 0 1.5Z" fill="white"/>
<path d="M1.5 0C2.32843 3.62117e-08 3 0.671573 3 1.5L3 10.5C3 11.3284 2.32843 12 1.5 12C0.671573 12 -1.83442e-08 11.3284 1.78675e-08 10.5L0 1.5C0 0.671573 0.671573 0 1.5 0Z" fill="white"/>
<path d="M0 75.5C0 76.3284 0.671573 77 1.5 77H10.5C11.3284 77 12 76.3284 12 75.5C12 74.6716 11.3284 74 10.5 74H1.5C0.671573 74 0 74.6716 0 75.5Z" fill="white"/>
<path d="M1.5 77C2.32843 77 3 76.3284 3 75.5L3 66.5C3 65.6716 2.32843 65 1.5 65C0.671573 65 -1.83442e-08 65.6716 1.78675e-08 66.5L0 75.5C0 76.3284 0.671573 77 1.5 77Z" fill="white"/>
<path d="M134 1.5C134 0.671573 133.328 0 132.5 0H123.5C122.672 0 122 0.671573 122 1.5C122 2.32843 122.672 3 123.5 3H132.5C133.328 3 134 2.32843 134 1.5Z" fill="white"/>
<path d="M132.5 0C131.672 3.62117e-08 131 0.671573 131 1.5L131 10.5C131 11.3284 131.672 12 132.5 12C133.328 12 134 11.3284 134 10.5L134 1.5C134 0.671573 133.328 0 132.5 0Z" fill="white"/>
<path d="M134 75.5C134 76.3284 133.328 77 132.5 77H123.5C122.672 77 122 76.3284 122 75.5C122 74.6716 122.672 74 123.5 74H132.5C133.328 74 134 74.6716 134 75.5Z" fill="white"/>
<path d="M132.5 77C131.672 77 131 76.3284 131 75.5L131 66.5C131 65.6716 131.672 65 132.5 65C133.328 65 134 65.6716 134 66.5L134 75.5C134 76.3284 133.328 77 132.5 77Z" fill="white"/>
</svg>
