<svg width="16" height="16" viewBox="0 0 16 16" fill="none" xmlns="http://www.w3.org/2000/svg">
<path fill-rule="evenodd" clip-rule="evenodd" d="M8.0001 3.66777C4.94053 3.66777 2.46025 6.14805 2.46025 9.20762C2.46025 12.2672 4.94053 14.7475 8.0001 14.7475C11.0597 14.7475 13.5399 12.2672 13.5399 9.20762C13.5399 8.87625 13.8086 8.60762 14.1399 8.60762C14.4713 8.60762 14.7399 8.87625 14.7399 9.20762C14.7399 12.9299 11.7224 15.9475 8.0001 15.9475C4.27778 15.9475 1.26025 12.9299 1.26025 9.20762C1.26025 5.4853 4.27778 2.46777 8.0001 2.46777C8.33147 2.46777 8.6001 2.7364 8.6001 3.06777C8.6001 3.39914 8.33147 3.66777 8.0001 3.66777Z" fill="white"/>
<path d="M11.4326 3.13958L7.55928 5.85854L7.55928 0.420624L11.4326 3.13958Z" fill="white"/>
</svg>
