<svg width="30" height="30" viewBox="0 0 30 30" fill="none" xmlns="http://www.w3.org/2000/svg">
<path fill-rule="evenodd" clip-rule="evenodd" d="M24.4177 3.37713C24.0736 3.14646 23.6077 3.23838 23.377 3.58243C23.1464 3.92647 23.2383 4.39237 23.5823 4.62303C26.2851 6.43505 28.25 10.3482 28.25 15.0001C28.25 19.652 26.2851 23.5651 23.5823 25.3771C23.2383 25.6078 23.1464 26.0737 23.377 26.4177C23.6077 26.7618 24.0736 26.8537 24.4177 26.623C27.6354 24.4657 29.75 20.0189 29.75 15.0001C29.75 9.98121 27.6354 5.53445 24.4177 3.37713ZM1.5 9.2797V20.7205L14.5 24.9367V15.0001V5.06348L1.5 9.2797ZM0.973216 7.87363C0.392965 8.06182 0 8.60238 0 9.21239V20.7878C0 21.3978 0.392966 21.9383 0.973217 22.1265L14.1584 26.4028C15.0676 26.6977 16 26.0199 16 25.064V15.0001V4.93611C16 3.98028 15.0676 3.30248 14.1584 3.59735L0.973216 7.87363ZM19.487 7.45294C19.7892 7.16963 20.2638 7.18493 20.5471 7.48711C21.2488 8.23554 21.7934 9.33846 22.1641 10.6099C22.5379 11.8925 22.75 13.3981 22.75 15.0001C22.75 16.6021 22.5379 18.1077 22.1641 19.3903C21.7934 20.6617 21.2488 21.7646 20.5471 22.5131C20.2638 22.8152 19.7892 22.8305 19.487 22.5472C19.1849 22.2639 19.1696 21.7893 19.4529 21.4871C19.9353 20.9726 20.3907 20.114 20.724 18.9705C21.0541 17.8381 21.25 16.4751 21.25 15.0001C21.25 13.525 21.0541 12.1621 20.724 11.0297C20.3907 9.88614 19.9353 9.02758 19.4529 8.51305C19.1696 8.21087 19.1849 7.73625 19.487 7.45294Z" fill="url(#paint0_linear_0_481)"/>
<defs>
<linearGradient id="paint0_linear_0_481" x1="-4.5" y1="15" x2="35.5" y2="15" gradientUnits="userSpaceOnUse">
<stop stop-color="#7E46F2"/>
<stop offset="1" stop-color="#00E6A1"/>
</linearGradient>
</defs>
</svg>
