<svg width="12" height="12" viewBox="0 0 12 12" fill="none" xmlns="http://www.w3.org/2000/svg">
<rect x="7.99805" y="3.90918" width="1.2" height="4.71431" rx="0.6" transform="rotate(45 7.99805 3.90918)" fill="#39FFD0"/>
<rect x="3.15332" y="5.7373" width="1.2" height="3.12889" rx="0.6" transform="rotate(-45 3.15332 5.7373)" fill="#39FFD0"/>
<path d="M5.82484 0.634463C5.82923 0.632661 5.83358 0.630821 5.83789 0.628944C5.88818 0.610115 5.94311 0.6 5.99945 0.6C6.06071 0.6 6.1203 0.611958 6.17407 0.634072L6.17436 0.634189L10.6744 2.48195C10.7498 2.51294 10.8078 2.56123 10.8455 2.61523C10.8828 2.66869 10.9 2.7267 10.9 2.78241C10.9 2.78242 10.9 2.78243 10.9 2.78244V5.6778C10.9 7.23944 10.16 8.64697 8.79307 9.64937L6.24654 11.3279L6.2463 11.3281C6.17788 11.3732 6.09178 11.4 6 11.4C5.90822 11.4 5.82212 11.3732 5.7537 11.3281L5.75352 11.328L3.18743 9.63609C1.84114 8.64826 1.1 7.24107 1.1 5.67797L1.1 2.7824C1.1 2.78237 1.1 2.78234 1.1 2.78231C1.10005 2.72665 1.11721 2.66869 1.15453 2.61529C1.19222 2.56136 1.25004 2.51314 1.32536 2.48215C1.32541 2.48212 1.32547 2.4821 1.32552 2.48208L5.82484 0.634463Z" stroke="white" stroke-width="1.2" stroke-linecap="round"/>
</svg>
