<svg width="20" height="20" viewBox="0 0 20 20" fill="none" xmlns="http://www.w3.org/2000/svg">
<circle cx="10" cy="10" r="10" fill="white" fill-opacity="0.14"/>
<path fill-rule="evenodd" clip-rule="evenodd" d="M5.5 5H5V5.5V14.5V15H5.5H14.5H15V14.5V8.95455C15 8.6784 14.7761 8.45455 14.5 8.45455C14.2239 8.45455 14 8.6784 14 8.95455V14H6V6H10.2273C10.5034 6 10.7273 5.77614 10.7273 5.5C10.7273 5.22386 10.5034 5 10.2273 5H5.5ZM14.5462 5.14652C14.3509 4.95126 14.0343 4.95126 13.8391 5.14652L9.14648 9.83912C8.95122 10.0344 8.95122 10.351 9.14648 10.5462C9.34174 10.7415 9.65833 10.7415 9.85359 10.5462L14.5462 5.85363C14.7414 5.65837 14.7414 5.34178 14.5462 5.14652Z" fill="white"/>
</svg>
