<svg width="16" height="16" viewBox="0 0 16 16" fill="none" xmlns="http://www.w3.org/2000/svg">
<path d="M13.1853 0.75003L13.1894 0.750008C13.4053 0.748849 13.62 0.877879 13.7256 1.11005L13.7255 1.11007L13.7288 1.11704C13.8384 1.35177 13.8051 1.63068 13.6513 1.82721L13.6492 1.82983L9.56229 7.09831L9.40489 7.30121V7.55801L9.40487 14.9936L9.4049 14.9983C9.40562 15.1113 9.34197 15.1956 9.27163 15.2281L9.2716 15.2281L9.26348 15.232C9.19744 15.2635 9.11785 15.2549 9.05474 15.1971L9.05237 15.1949L6.72777 13.0842L6.72662 13.0832C6.67872 13.0399 6.64314 12.9682 6.64314 12.8828V7.55801V7.3012L6.48573 7.09829L2.39837 1.82959L2.39837 1.82959L2.39635 1.827C2.24247 1.63043 2.20916 1.35124 2.31867 1.1167L2.32032 1.11314C2.42975 0.875548 2.63863 0.750019 2.86227 0.750019L13.1853 0.75003Z" stroke="white" stroke-width="1.5"/>
</svg>
